<svg xmlns="http://www.w3.org/2000/svg" height="53" viewBox="0 0 198 53" width="198" version="1.1">
<g id="logo">
<path fill="#c4412d" d="m169.96 35.03c-1.99-1.13-3.01-1.47-4.34-1.47-2.32 0-4.08 1.58-4.08 3.68 0 5.16 9.21 2.69 9.21 9.46 0 2.98-2.46 5.3-5.61 5.3-1.59 0-3.26-.57-4.96-1.7v-1.76c2.16 1.56 3.37 2.07 4.88 2.07 2.29 0 4.08-1.67 4.08-3.85 0-5.5-9.21-3.09-9.21-9.46 0-2.87 2.49-5.13 5.55-5.13 1.5 0 2.98 .39 4.48 1.22v1.64zm-12.3 .48c-2.35-1.33-4.53-1.95-6.86-1.95-4.9 0-8.52 3.62-8.52 8.52 0 4.34 2.86 8.53 8.95 8.53 2.24 0 3.77-.42 5.3-1.19v-5.21h-4.08v-1.25h5.58v7.4c-2.3 1.1-4.62 1.64-6.86 1.64-6 0-10.51-4.25-10.51-9.97 0-5.67 4.39-9.86 10.37-9.86 2.18 0 3.91 .42 6.63 1.64v1.7zm-19.64 16.23h-1.24l-14.68-16.88v16.88h-1.5v-19.32h1.27l14.65 16.89v-16.89h1.5v19.32zm-20.82 0h-1.5v-19.32h1.5v19.32zm-21.45-19.32v19.32h7.03c7.65 0 10.28-5.18 10.28-9.66 0-4.25-2.32-9.66-10.54-9.66h-6.77zm1.5 1.25h5.36c5.24 0 8.84 3.46 8.84 8.41 0 5.44-4.11 8.42-8.76 8.42h-5.44v-16.83zm-3.82 0h-9.04v7.73h8.81v1.25h-8.81v7.85h9.26v1.24h-10.76v-19.32h10.54v1.25zm-12.89 0h-9.04v7.73h8.81v1.25h-8.81v7.85h9.26v1.24h-10.76v-19.32h10.54v1.25zm-12.67 1.76c-2.41-1.28-4.59-1.87-6.88-1.87-4.82 0-8.45 3.65-8.45 8.55 0 4.99 3.6 8.5 8.64 8.5 2.18 0 4.25-.59 6.89-1.98v1.56c-2.24 1.19-4.62 1.81-6.86 1.81-5.89 0-10.28-4.22-10.28-9.89 0-5.92 4.84-9.94 10.14-9.94 2.15 0 4.45 .53 6.8 1.61v1.65zm-29.01-3.26c-5.73 0-10.2 4.36-10.2 9.91 0 5.56 4.47 9.92 10.2 9.92 5.75 0 10.25-4.36 10.25-9.92 0-5.55-4.5-9.91-10.25-9.91zm0.05 1.38c4.85 0 8.59 3.72 8.59 8.53 0 4.82-3.74 8.53-8.59 8.53-4.84 0-8.64-3.71-8.64-8.53 0-4.81 3.8-8.53 8.64-8.53zm-24.28-1.13v19.32h1.5v-9.26h2.61c2.32 0 3.06 .31 5.38 3.97l3.37 5.29h1.76l-4.37-6.68c-.9-1.36-1.67-2.47-2.57-2.95 2.46-.91 3.68-2.46 3.68-4.7 0-2.58-1.67-4.99-6.4-4.99h-4.96zm1.5 1.25h3.15c3.54 0 5.1 1.59 5.1 3.77 0 2.32-1.65 3.79-5.05 3.79h-3.2v-7.56zm-14.99-1.25v19.32h1.5v-9.03h3.69c5.01 0 6.46-2.7 6.46-5.19 0-2.78-1.79-5.1-6.32-5.1h-5.33zm1.5 1.25h3.77c3.4 0 4.76 1.78 4.76 3.88 0 2.18-1.33 3.91-4.93 3.91h-3.6v-7.79z"/>
<path fill="#1d2b5a" d="m1 27.81c0 .55 .1 .77 .75 .77h2.74c0.59 0 .76-.14 .76-.8v-12.61c0-1.07 .03-1.95 .82-2.72 .72-.74 1.61-.74 1.88-.74 2.67 0 2.67 2.68 2.67 3.82v12.28c0 .7 .28 .77 .82 .77h2.74c0.59 0 .69-.22 .69-.8v-12.61c0-1.18 0-1.92 .75-2.61 .38-.37 .99-.74 1.92-.74 2.67 0 2.7 2.35 2.7 3.93v12.03c0 .62 .14 .8 .72 .8h2.85c0.54 0 .68-.22 .68-.77v-12.64c0-1.22-.04-3.46-1.68-4.89-1.13-.96-2.6-1.22-4.07-1.22-1.03 0-2.06 .11-3.02 .41-1.54 .48-2.19 1.14-2.7 1.69-.65-.7-1.89-2.1-5.31-2.1-1.61 0-4.42 .48-5.82 1.58-.86 .67-.86 1.07-.89 2.61m38.21 2.25c0-2.72 .04-6.44-5.47-6.44-4.15 0-6.82 2.21-6.82 4.45 0 1.18 .82 1.95 1.85 1.95 1.3 0 1.61-.92 1.92-1.84 .27-.66 .75-2.02 2.39-2.02 2.06 0 2.09 1.99 2.09 3.35v1.87c-3.9 1.1-6.13 1.73-7.63 3.31-1.37 1.4-1.51 2.94-1.51 3.75 0 5.18 5.55 5.18 6.64 5.18 .62 0 3.26-.04 5.04-1.1 1.33-.77 1.47-1.65 1.5-3.27v-9.19zm-4.04 8.6c0 .81-.03 2.43-2.12 2.43-1.81 0-2.84-1.33-2.84-3.17 0-2.75 2.29-3.53 4.96-4.41v5.15zm13.66-12.54c0.59 0 .59-.14 .59-1.5 0-.52-.28-.52-.65-.52h-2.61v-4.3c0-.44-.03-1.03-.48-1.03-.13 0-.24 .04-.61 .3l-2.47 1.69c-.51 .4-.61 .58-.61 1.28v2.06h-1.68c-.45 0-.58 .15-.58 .59 0 1.29 0 1.43 .61 1.43h1.65v12.1c0 1.17 .03 2.5 .99 3.75 .68 .88 1.88 1.62 3.73 1.62 1.37 0 3.29-.59 3.29-1.62 0-.96-.65-.96-1.51-.96-2.29-.11-2.33-2.46-2.33-3.53v-11.36h2.67zm13.87 5.88c0.41-.07 1.2-.18 1.2-1.47 0-1.76-1.27-6.91-6.61-6.91-3.66 0-7.67 2.65-7.67 9.97 0 6.5 3.15 10.03 7.67 10.03 5.38 0 6.78-5.37 6.78-6.39 0-.74-.44-1.14-.89-1.14-.44 0-.61 .22-1.16 1.06-.89 1.25-2.26 2.43-4.08 2.43-1.64 0-4.14-.99-4.72-6.07l9.48-1.51zm-9.65-.77c0.17-2.53 1.23-4.85 3.59-4.85 1.51 0 2.84 1.36 2.98 3.71l-6.57 1.14zm16.81-3.08c0-.92 .03-2.21 1.81-2.21 1.03 0 1.41 .59 1.72 1.03 .51 .84 .82 1.4 1.74 1.4 1.1 0 1.82-.89 1.82-1.99 0-2.17-1.99-2.76-4.11-2.76-2.64 0-5.1 .59-6.27 1.29-.85 .48-.99 .96-.99 2.09v15.37c0 .63 .17 .77 .75 .77h2.81c0.58 0 .68-.18 .72-.77v-14.22zm12.19-3.24c-.04-.62-.1-.81-.75-.81h-2.92c-.58 0-.65 .26-.65 .77v17.5c0 .59 .04 .77 .59 .77h2.98c0.68 0 .75-.22 .75-.8v-17.43zm0.06-5.77c-.03-1.18-.75-2.21-2.22-2.21-1.51 0-2.33 1.03-2.33 2.32s0.89 2.2 2.33 2.2c1.34 0 2.26-.95 2.22-2.31m14.52 10.92c0-2.72 .04-6.44-5.47-6.44-4.15 0-6.82 2.21-6.82 4.45 0 1.18 .82 1.95 1.85 1.95 1.3 0 1.61-.92 1.92-1.84 .27-.66 .75-2.02 2.39-2.02 2.06 0 2.09 1.99 2.09 3.35v1.87c-3.9 1.1-6.13 1.73-7.63 3.31-1.37 1.4-1.51 2.94-1.51 3.75 0 5.18 5.55 5.18 6.64 5.18 .62 0 3.26-.04 5.04-1.1 1.33-.77 1.47-1.65 1.5-3.27v-9.19zm-4.04 8.6c0 .81-.03 2.43-2.12 2.43-1.81 0-2.84-1.33-2.84-3.17 0-2.75 2.29-3.53 4.96-4.41v5.15zm6.3 3.71c0 .74 .21 .77 .79 .77h2.71c0.54 0 .75-.11 .75-.77v-26.65c0-.66-.17-.7-.75-.7h-2.71c-.62 0-.79 .11-.79 .7v26.65zm12.88-11.03c-1.2-.55-2.71-1.25-2.71-3.08 0-.96 .65-2.21 2.06-2.21 1.4 0 1.98 1.1 2.33 1.8 .37 .7 .82 1.51 1.88 1.51 .96 0 1.64-.77 1.64-1.8 0-1.47-1.54-3.94-5.68-3.94-4.35 0-5.96 2.8-5.96 5.41 0 3.42 2.74 4.85 3.77 5.36 .85 .45 2.94 1.51 3.42 1.88 .34 .33 1.1 1.03 1.1 2.28 0 1.36-.93 2.28-2.16 2.28-1.37 0-1.99-.96-2.81-2.21-.48-.7-.96-1.43-1.91-1.43-1 0-1.75 .88-1.75 1.98 0 1.47 1.64 4.45 6.37 4.45 5.1 0 6.16-3.71 6.16-5.77 0-3.53-2.47-4.85-4.04-5.66l-1.71-.85z"/>
<path fill="#54565a" d="m191.22 10.73c0.14-.41 .17-.52 .17-.7 0-.52-.44-.52-.68-.52h-2.06c-.65 0-.75 .15-.96 .81l-3.8 12.72-4.04-12.72c-.24-.7-.24-.81-.89-.81h-3.15c-.2 0-.65 0-.65 .52 0 .11 .04 .26 .17 .66l6.61 18.49c-.99 3.2-1.71 4.41-3.08 4.41-.55 0-1.54-.4-2.05-.4-1.07 0-1.85 .88-1.85 1.99 0 1.17 .89 2.27 3.01 2.27 4.14 0 5.62-4.08 6.4-6.36l6.85-20.36zm-22.19-1.69c-4.14 0-6.81 2.2-6.81 4.44 0 1.18 .82 1.95 1.85 1.95 1.3 0 1.61-.92 1.92-1.83 .27-.67 .75-2.03 2.39-2.03 2.06 0 2.09 1.99 2.09 3.35v1.87c-3.9 1.11-6.13 1.73-7.63 3.31-1.37 1.4-1.51 2.94-1.51 3.75 0 5.18 5.55 5.19 6.64 5.19 .62 0 3.26-.04 5.04-1.11 1.33-.77 1.47-1.65 1.5-3.27v-9.19c0-2.72 .04-6.43-5.48-6.43zm1.44 9.89v5.14c0 .81-.03 2.43-2.12 2.43-1.82 0-2.84-1.32-2.84-3.16 0-2.76 2.29-3.53 4.96-4.41zm-14.07-18.53c-.69 0-.79 .33-.79 .88v8.71c-.68-.44-1.54-.99-3.12-.99-5.03 0-7.6 5.4-7.6 10.55 0 5.99 2.95 9.49 8.05 9.49 2.19 0 4.66-.63 5.82-1.55 1.03-.81 1.1-1.76 1.1-2.72v-23.56c0-.67-.18-.81-.82-.81h-2.64zm-3.02 11.1c1.1 0 1.79 .55 2.23 .92v10.88c0 1.14 0 2.76-2.12 2.76-2.53 0-4.31-2.69-4.31-7.32 0-3.93 1.54-7.24 4.2-7.24zm-17.66-2.46c-5 0-8.22 4.26-8.22 1e1 0 5.66 3.11 1e1 8.15 1e1 5.34 0 8.29-4.82 8.18-10.22-.1-4.45-2.53-9.78-8.11-9.78zm-.21 2.72c2.02 0 3.7 2.46 3.87 6.84 .17 4.22-1.37 7.38-3.56 7.38-2.26 0-3.9-3.38-3.9-7.5 0-3.71 1.26-6.72 3.59-6.72zm-8.8-.22c0.58 0 .58-.15 .58-1.51 0-.52-.27-.52-.65-.52h-2.6v-4.3c0-.44-.03-1.03-.48-1.03-.13 0-.24 .04-.61 .3l-2.47 1.69c-.51 .4-.61 .59-.61 1.28v2.06h-1.68c-.45 0-.59 .15-.59 .59 0 1.29 0 1.44 .62 1.44h1.64v12.09c0 1.18 .04 2.5 1 3.75 .68 .88 1.88 1.62 3.73 1.62 1.37 0 3.28-.59 3.28-1.62 0-.95-.64-.95-1.5-.95-2.29-.11-2.33-2.47-2.33-3.53v-11.36m73.4 2.49c0 1.32-1.07 2.4-2.4 2.4-1.32 0-2.4-1.08-2.4-2.4 0-1.33 1.08-2.4 2.4-2.4 1.33 0 2.4 1.07 2.4 2.4zm0 8.16c0 1.32-1.07 2.4-2.4 2.4-1.32 0-2.4-1.08-2.4-2.4 0-1.33 1.08-2.4 2.4-2.4 1.33 0 2.4 1.07 2.4 2.4z"/>
</g>
</svg>
