<?xml version="1.0" encoding="UTF-8"?><svg id="b" xmlns="http://www.w3.org/2000/svg" width="225" height="75" viewBox="0 0 225 75"><polygon points="72.09 52.52 96.8 52.52 96.8 45.34 80.44 45.34 80.44 40.51 95.05 40.51 95.05 33.86 80.44 33.86 80.44 29.2 96.58 29.2 96.58 22.07 72.09 22.07 72.09 52.52" fill="#231f20"/><path d="M111.85,48.22c0-2.85-2.32-5.16-5.16-5.16s-5.24,2.32-5.24,5.16,2.32,5.23,5.24,5.23,5.16-2.32,5.16-5.23" fill="#231f20"/><path d="M14.27,53.04c7.4,0,12.31-3.69,12.31-9.91v-.09c0-5.7-4.35-7.96-11.31-9.49-4.27-.96-5.31-1.57-5.31-2.96v-.09c0-1.13,1-1.96,3.05-1.96,2.7,0,5.75,1,8.53,3l4.22-5.96c-3.31-2.65-7.35-4.04-12.53-4.04-7.31,0-11.79,4.09-11.79,9.74v.09c0,6.22,5,8.05,11.48,9.53,4.18,1,5.18,1.65,5.18,2.96v.09c0,1.3-1.22,2.09-3.53,2.09-3.52,0-6.83-1.26-9.87-3.65l-4.7,5.61c3.78,3.35,8.87,5.04,14.27,5.04" fill="#231f20"/><path d="M38.09,37.21v-8.05h4c3,0,4.88,1.35,4.88,3.96v.09c0,2.39-1.87,4-4.83,4h-4.05ZM29.65,52.52h8.43v-8.7h4.22c7.53,0,13.05-3.78,13.05-11v-.09c0-6.7-4.95-10.66-12.61-10.66h-13.09v30.45Z" fill="#231f20"/><rect x="58.36" y="22.07" width="8.43" height="30.44" fill="#231f20"/><path d="M124.13,22.09h-5.16v12.53h3v-3.67h1.89c3.1,0,5.11-1.75,5.11-4.49s-1.9-4.38-4.84-4.38ZM121.98,24.83h1.93c1.29,0,2.03.62,2.03,1.73,0,1.01-.8,1.7-1.98,1.7h-1.98v-3.43Z" fill="#ed1c24"/><polygon points="138.25 22.09 138.25 26.93 133.59 26.93 133.59 22.09 130.58 22.09 130.58 34.63 133.59 34.63 133.59 29.72 138.25 29.72 138.25 34.63 141.25 34.63 141.25 22.09 138.25 22.09" fill="#ed1c24"/><path d="M149.94,21.88c-3.75,0-6.68,2.84-6.68,6.51s2.86,6.44,6.64,6.44,6.68-2.84,6.68-6.51-2.86-6.44-6.64-6.44ZM149.9,24.67c2.03,0,3.55,1.58,3.55,3.72s-1.51,3.65-3.52,3.65-3.55-1.58-3.55-3.72,1.51-3.65,3.52-3.65Z" fill="#ed1c24"/><polygon points="157.12 22.09 157.12 24.88 160.85 24.88 160.85 34.63 163.85 34.63 163.85 24.88 167.58 24.88 167.58 22.09 157.12 22.09" fill="#ed1c24"/><path d="M174.8,21.88c-3.75,0-6.68,2.84-6.68,6.51s2.86,6.44,6.64,6.44,6.68-2.84,6.68-6.51-2.86-6.44-6.64-6.44ZM174.77,24.67c2.03,0,3.55,1.58,3.55,3.72s-1.51,3.65-3.52,3.65-3.55-1.58-3.55-3.72,1.51-3.65,3.52-3.65Z" fill="#ed1c24"/><polygon points="191.68 22.09 191.68 29.32 186.22 22.15 186.17 22.09 183.46 22.09 183.46 34.63 186.43 34.63 186.43 27.16 192.08 34.57 192.13 34.63 194.65 34.63 194.65 22.09 191.68 22.09" fill="#ed1c24"/><rect x="197.32" y="22.09" width="3" height="12.53" fill="#ed1c24"/><path d="M212.21,30.56l-.11.1c-.97.88-1.79,1.39-3.12,1.39-1.94,0-3.4-1.58-3.4-3.72s1.46-3.65,3.4-3.65c1.07,0,2.01.41,3.03,1.34l.12.11,1.91-2.2-.1-.1c-1.36-1.33-2.88-1.93-4.94-1.93-3.73,0-6.54,2.78-6.54,6.51s2.77,6.44,6.44,6.44c2.16,0,3.65-.65,5.13-2.23l.1-.11-1.92-1.94Z" fill="#ed1c24"/><path d="M221,27.01c-2.1-.54-2.52-.78-2.52-1.49,0-.55.56-.91,1.42-.91.94,0,1.95.38,3.1,1.18l.13.09,1.57-2.27-.11-.09c-1.31-1.05-2.88-1.59-4.64-1.59-2.61,0-4.44,1.58-4.44,3.87,0,2.61,1.81,3.28,4.18,3.89,2.02.52,2.35.84,2.35,1.44s-.6,1-1.61,1c-1.23,0-2.36-.46-3.56-1.45l-.12-.1-1.79,2.14.11.1c1.44,1.29,3.33,1.99,5.3,1.99,2.87,0,4.65-1.51,4.65-3.98,0-2.3-1.6-3.19-4-3.82Z" fill="#ed1c24"/><polygon points="133.83 39.97 131.4 47.89 128.77 39.94 126.24 39.94 123.61 47.89 121.22 40.08 121.19 39.97 117.97 39.97 122.22 52.48 122.25 52.59 124.82 52.59 127.47 44.91 130.13 52.59 132.69 52.59 136.98 39.97 133.83 39.97" fill="#ed1c24"/><polygon points="141.51 49.8 141.51 47.54 147.28 47.54 147.28 44.84 141.51 44.84 141.51 42.67 148.07 42.67 148.07 39.97 138.52 39.97 138.52 52.5 148.15 52.5 148.15 49.8 141.51 49.8" fill="#ed1c24"/><path d="M155.62,44.88c-2.1-.54-2.52-.78-2.52-1.49,0-.55.56-.91,1.42-.91.94,0,1.95.38,3.1,1.18l.13.09,1.57-2.27-.11-.09c-1.31-1.05-2.88-1.59-4.64-1.59-2.61,0-4.44,1.58-4.44,3.87,0,2.61,1.81,3.28,4.18,3.89,2.02.52,2.35.84,2.35,1.44s-.6,1-1.61,1c-1.23,0-2.36-.46-3.56-1.45l-.12-.1-1.79,2.14.11.1c1.44,1.29,3.32,1.99,5.3,1.99,2.87,0,4.65-1.51,4.65-3.98,0-2.3-1.6-3.19-4-3.82Z" fill="#ed1c24"/><polygon points="160.71 39.97 160.71 42.76 164.44 42.76 164.44 52.5 167.44 52.5 167.44 42.76 171.16 42.76 171.16 39.97 160.71 39.97" fill="#ed1c24"/></svg>